<svg version="1.1" id="Layer_1" xmlns="http://www.w3.org/2000/svg" xmlns:xlink="http://www.w3.org/1999/xlink" x="0px" y="0px"
	 width="100%" viewBox="0 0 905 219" enable-background="new 0 0 905 219" xml:space="preserve">
<path fill="#000101" opacity="1.000000" stroke="none" 
	d="
M659.000000,220.000000 
	C439.382080,220.000000 220.264145,220.000000 1.073109,220.000000 
	C1.073109,147.065033 1.073109,74.129982 1.073109,1.097460 
	C302.666656,1.097460 604.333313,1.097460 905.972534,1.097460 
	C905.972534,74.069145 905.972534,147.034576 905.972534,220.000000 
	C823.796692,220.000000 741.648315,220.000000 659.000000,220.000000 
M210.015884,108.986618 
	C210.015884,108.986618 210.085602,108.964714 209.929611,108.440445 
	C209.615097,108.325356 209.300598,108.210266 208.397980,107.835007 
	C207.088837,106.099586 205.731903,106.086143 204.580200,107.913223 
	C201.296982,113.121719 198.084702,118.374947 194.334457,123.945335 
	C194.201477,124.320137 194.068497,124.694939 193.781662,125.243263 
	C193.781662,125.243263 193.821304,125.471756 193.304062,125.814697 
	C193.175720,126.199417 193.047379,126.584145 192.998428,126.978355 
	C192.998428,126.978355 192.934784,126.929947 192.397598,127.227013 
	C192.227188,127.803001 192.056763,128.378983 191.964401,128.982986 
	C191.964401,128.982986 191.938599,128.904175 191.431046,129.083557 
	C191.306229,129.398941 191.181396,129.714325 190.994705,130.031723 
	C190.994705,130.031723 191.049286,130.061340 190.634354,130.468231 
	C190.344177,130.962814 190.054001,131.457397 189.386719,132.105408 
	C189.149948,132.268417 189.004761,132.491135 188.029999,132.936340 
	C178.194092,133.000702 168.348984,132.844437 158.527527,133.254684 
	C155.293549,133.389755 152.120758,134.990143 148.972778,135.996521 
	C148.972778,135.996521 148.957932,135.905197 148.345688,136.010864 
	C148.061661,136.298569 147.777649,136.586288 147.196564,136.975616 
	C147.009552,137.100266 146.903030,137.274216 146.310608,137.810333 
	C146.091812,138.177872 145.873032,138.545410 145.131912,139.297379 
	C144.378433,140.842484 143.624939,142.387604 142.357452,144.251770 
	C142.736053,144.946884 143.114639,145.642014 143.600433,146.401138 
	C143.600433,146.401138 143.718185,146.442627 143.970932,147.199951 
	C145.869110,147.493851 147.765381,148.026672 149.665787,148.041855 
	C159.967453,148.124176 170.270187,148.064926 180.572464,148.090515 
	C182.273666,148.094742 183.974426,148.277496 186.208221,148.409149 
	C179.069061,154.089157 171.669769,154.920486 163.787262,153.543533 
	C162.161911,153.259613 160.476883,153.122726 158.830307,153.189209 
	C152.389786,153.449142 147.406174,155.878387 144.847992,162.307297 
	C143.583557,165.484909 144.046738,167.096237 148.412018,167.612564 
	C157.939911,167.748108 167.467804,167.883652 177.474152,168.490234 
	C178.825775,169.443085 180.181824,170.389725 181.528229,171.349899 
	C186.803375,175.111832 192.479630,174.800003 196.757217,170.508133 
	C201.025787,166.225327 201.537888,160.183243 197.869980,155.132019 
	C196.226151,152.868240 194.252365,150.844070 192.561111,148.866425 
	C193.997955,148.015701 195.621597,147.054398 197.832367,145.751968 
	C201.218399,139.845444 204.604416,133.938934 208.586868,127.964012 
	C208.739441,127.607262 208.892014,127.250504 209.180374,126.731880 
	C209.180374,126.731880 209.081284,126.545265 209.633896,126.202019 
	C209.778671,125.803535 209.923431,125.405045 210.003067,125.008438 
	C210.003067,125.008438 210.034592,125.065453 210.548187,124.731949 
	C210.726471,124.159340 210.904755,123.586731 211.011642,123.011307 
	C211.011642,123.011307 211.048645,123.072456 211.589584,122.760147 
	C211.736206,122.170242 211.882843,121.580338 211.988068,121.001411 
	C211.988068,121.001411 212.008209,121.039246 212.573715,120.464058 
	C212.384384,117.632500 212.195053,114.800949 211.991501,112.001846 
	C211.991501,112.001846 212.026489,112.007416 211.999481,111.398010 
	C211.671570,110.915939 211.343658,110.433868 210.993347,109.998138 
	C210.993347,109.998138 211.044800,109.999390 210.932114,109.465195 
	C210.631714,109.281837 210.331329,109.098473 210.015884,108.986618 
M132.979813,89.638313 
	C133.310623,89.786026 133.641434,89.933739 133.993332,90.009247 
	C133.993332,90.009247 133.931412,90.051964 134.235229,90.594551 
	C134.819855,90.759705 135.404465,90.924858 135.986282,91.017311 
	C135.986282,91.017311 135.920853,91.049156 136.329468,91.609726 
	C137.224503,91.703300 138.119537,91.796867 139.684448,91.993561 
	C140.132446,91.948959 140.580460,91.904358 141.738129,92.003708 
	C142.827362,91.664993 143.916611,91.326279 144.997009,90.995781 
	C144.997009,90.995781 144.984756,90.996536 145.739273,91.018585 
	C150.632904,89.218224 146.308533,86.988731 145.996475,84.997200 
	C145.996475,84.997200 146.052567,84.996208 145.972641,84.442139 
	C145.694061,84.235115 145.415482,84.028099 145.133926,83.922874 
	C145.133926,83.922874 145.228455,83.884979 145.225815,83.255608 
	C144.845535,82.798172 144.465240,82.340736 144.049545,81.957199 
	C144.049545,81.957199 144.131012,81.966064 144.061157,81.327286 
	C143.717346,80.813545 143.373520,80.299812 142.906982,79.116493 
	C137.635422,70.750275 132.363876,62.384064 127.163757,53.347427 
	C126.799416,52.815296 126.435066,52.283161 125.978218,51.194180 
	C125.450668,50.433380 124.923119,49.672581 124.172714,48.331944 
	C123.795647,47.870686 123.418571,47.409431 122.999146,46.994972 
	C122.999146,46.994972 123.058746,46.974300 122.959686,46.438515 
	C122.656364,46.265877 122.353043,46.093239 122.008171,45.992970 
	C122.008171,45.992970 122.079559,45.949749 121.954086,45.421577 
	C121.647476,45.258785 121.340858,45.095993 121.004501,45.000175 
	C121.004501,45.000175 121.054298,44.946236 120.624786,44.288010 
	C119.055000,43.845764 117.491478,43.049042 115.914375,43.021202 
	C108.127480,42.883724 100.333496,42.821255 92.550156,43.032417 
	C90.549217,43.086704 88.577812,44.229233 86.311760,44.872833 
	C86.311760,44.872833 86.071785,45.019154 85.500046,45.067726 
	C85.277031,45.366131 85.054016,45.664536 84.436508,46.097633 
	C84.172150,46.229649 83.996109,46.436741 83.390472,46.957218 
	C83.232887,47.291008 83.075310,47.624798 82.993042,47.985840 
	C82.993042,47.985840 82.948830,47.919060 82.423820,48.067039 
	C82.282822,48.382179 82.141823,48.697319 82.003883,49.001945 
	C82.003883,49.001945 82.008499,48.992188 81.552666,49.396038 
	C81.362144,49.953018 81.171623,50.509995 80.845802,51.297497 
	C80.845802,51.297497 80.880508,51.562527 80.303795,52.061226 
	C78.767036,57.630657 79.075058,58.047825 84.782738,58.044006 
	C93.897530,58.037907 103.012321,58.023460 112.304016,58.143818 
	C112.304016,58.143818 112.517235,58.088467 112.803444,58.682144 
	C113.536316,59.469051 114.269188,60.255959 115.193657,61.706966 
	C119.671059,69.170921 124.148453,76.634880 128.793167,84.706612 
	C129.178223,85.163605 129.563263,85.620590 129.987595,86.012192 
	C129.987595,86.012192 129.913239,86.029228 130.015137,86.581314 
	C130.319946,86.762054 130.624756,86.942795 130.966583,87.041527 
	C130.966583,87.041527 130.880325,87.067062 130.990585,87.614799 
	C131.304092,87.788033 131.617584,87.961273 131.945999,88.050667 
	C131.945999,88.050667 131.863480,88.071686 131.991440,88.613426 
	C132.305237,88.780991 132.619019,88.948547 132.932373,89.027199 
	C132.932373,89.027199 132.863556,89.083504 132.979813,89.638313 
M165.991745,86.990822 
	C165.991745,86.990822 165.972290,86.924873 165.491180,87.120697 
	C165.377151,87.426498 165.263123,87.732300 164.767181,88.614395 
	C162.067657,93.178055 159.177261,97.641441 156.714264,102.329376 
	C153.200150,109.017960 154.944275,115.384453 161.530685,120.189194 
	C162.719467,118.704796 164.110947,117.311745 165.098373,115.674950 
	C169.487289,108.399681 173.648666,100.985519 178.113739,93.758362 
	C181.230804,88.713074 184.706390,83.889282 188.344666,79.703468 
	C187.223663,83.911125 186.114014,88.121864 184.975647,92.324821 
	C184.563171,93.847755 184.372803,95.528633 183.580505,96.833511 
	C180.582886,101.770523 177.088745,106.423851 174.326859,111.481728 
	C170.817932,117.907646 173.296799,124.938660 180.443024,128.898346 
	C183.657318,123.464928 186.803299,117.957405 190.137787,112.566505 
	C193.161011,107.678848 194.602066,101.969452 201.660995,99.898613 
	C208.443237,97.908936 211.540634,89.420036 209.062958,84.221565 
	C205.698608,77.162773 198.663956,74.884933 191.122131,78.334816 
	C190.166183,78.772095 189.023651,78.801453 187.936035,78.211739 
	C189.884949,74.378937 188.827164,70.888046 186.764816,67.480377 
	C183.235748,61.649220 179.740768,55.797440 176.030823,49.339535 
	C175.720352,49.050903 175.409897,48.762276 175.167358,48.253567 
	C175.167358,48.253567 175.018784,48.077572 174.951996,47.510651 
	C174.654022,47.303684 174.356033,47.096722 174.086273,46.967777 
	C174.086273,46.967777 174.135910,46.901295 173.941269,46.200077 
	C170.975098,41.611290 166.373413,43.044056 162.230850,43.199474 
	C160.806396,43.252918 158.635635,44.008705 158.236099,45.012775 
	C157.834183,46.022781 159.211670,47.740845 159.928345,49.009792 
	C159.928345,49.009792 159.778152,49.113998 159.782532,49.775322 
	C160.152740,50.291927 160.522949,50.808529 160.909317,51.656616 
	C160.909317,51.656616 161.053223,51.955677 161.079803,52.518547 
	C161.366653,52.744934 161.653519,52.971321 162.288254,53.796768 
	C164.221710,57.207355 166.155182,60.617943 168.198776,64.636108 
	C168.785995,65.448853 169.373215,66.261597 169.988144,67.007141 
	C169.988144,67.007141 169.919708,67.031624 170.021393,67.687759 
	C170.643723,68.585403 171.266068,69.483040 171.879135,70.677246 
	C171.879135,70.677246 172.024780,70.935760 171.975510,71.788589 
	C172.004166,73.206802 172.032837,74.625008 171.926941,76.367073 
	C171.926941,76.367073 171.920425,76.717697 171.416855,76.992332 
	C171.296249,77.340393 171.175644,77.688461 170.890823,78.308235 
	C170.890823,78.308235 170.878662,78.625465 170.299164,78.969589 
	C169.835541,79.965446 169.371918,80.961311 168.980667,81.992607 
	C168.980667,81.992607 168.949219,81.918396 168.392227,82.196190 
	C168.170959,82.768501 167.949692,83.340820 167.308975,84.149841 
	C167.170471,84.599365 167.031967,85.048889 166.350861,85.823647 
	C166.208267,86.211571 166.065659,86.599503 165.991745,86.990822 
M150.039566,78.578468 
	C150.351242,78.742882 150.662918,78.907288 150.994247,79.003845 
	C150.994247,79.003845 150.938995,79.047874 151.365936,79.700668 
	C155.277466,79.829971 159.188995,79.959282 163.048431,80.137405 
	C163.048431,80.137405 163.116425,80.159172 163.778870,80.010696 
	C163.519516,78.395721 163.260162,76.780739 162.423599,74.730164 
	C160.600296,71.258698 158.409439,67.925400 157.040283,64.283218 
	C155.011719,58.886902 149.287781,54.574848 151.175812,48.075066 
	C152.838959,42.349464 150.663406,38.668842 146.674942,35.072601 
	C142.185593,31.024750 134.722305,31.181702 130.230820,35.783176 
	C125.891472,40.228790 125.876846,47.390003 130.143173,51.672543 
	C133.374130,54.915771 136.942093,57.928574 139.624893,61.583569 
	C142.426743,65.400742 144.348740,69.863716 146.856888,74.641571 
	C147.239471,75.118065 147.622070,75.594559 148.082687,76.505035 
	C148.217148,76.791595 148.437866,76.973541 148.979874,77.574371 
	C149.308487,77.743866 149.637115,77.913353 149.983292,78.010406 
	C149.983292,78.010406 149.915329,78.041000 150.039566,78.578468 
M101.494812,132.648605 
	C101.672150,132.067947 101.849487,131.487289 102.180824,130.738846 
	C102.180824,130.738846 102.111160,130.522018 102.736130,130.000900 
	C104.294701,126.472633 104.715164,123.019623 101.906921,119.121025 
	C97.220833,112.475647 95.699646,112.563850 91.779930,119.582085 
	C87.041275,128.066635 82.236160,136.514038 77.480949,144.989380 
	C76.516647,146.708069 75.646538,148.479645 74.733009,150.226837 
	C74.156868,150.070267 73.580727,149.913712 73.004585,149.757141 
	C73.825569,145.394363 73.989410,140.760727 75.645676,136.742218 
	C77.430946,132.410706 80.582771,128.634888 83.194252,124.653252 
	C86.803108,119.150963 86.099358,114.123291 81.836617,109.279488 
	C79.363853,106.469666 77.054329,106.521812 75.248306,109.794510 
	C71.870178,115.916031 68.835152,122.249458 65.102814,128.143539 
	C63.199722,131.148911 60.525799,134.256592 57.440830,135.799164 
	C51.179291,138.930099 47.423508,145.275116 50.112839,151.010300 
	C53.462208,158.153076 59.464443,162.349884 66.776146,158.106735 
	C67.738136,157.548447 68.925621,157.378738 69.983391,156.989487 
	C69.983391,156.989487 69.949577,156.956543 70.107666,157.808105 
	C70.407944,160.032410 70.101952,162.592422 71.115059,164.422012 
	C75.170479,171.745804 79.776604,178.762878 83.902649,186.049896 
	C87.017883,191.551727 93.893723,194.085083 99.572113,191.136551 
	C100.412125,190.700363 101.274612,188.472473 100.881706,187.782318 
	C97.186630,181.291824 93.432129,174.813431 89.268021,168.618408 
	C85.762192,163.402679 85.427956,160.631485 88.619331,155.074539 
	C92.185127,148.865616 95.606178,142.573578 99.648537,135.951813 
	C100.112610,134.970703 100.576683,133.989594 100.993279,133.005341 
	C100.993279,133.005341 101.018005,133.045975 101.494812,132.648605 
M116.939796,157.778992 
	C117.919731,159.229492 118.899666,160.680008 119.880043,161.998291 
	C119.880043,161.998291 119.835403,162.122940 119.929222,162.823654 
	C122.251900,166.299194 124.574577,169.774734 126.913696,173.641144 
	C126.913696,173.641144 127.039818,174.011459 127.065193,174.563248 
	C127.356064,174.778412 127.646935,174.993576 128.072800,175.621613 
	C128.242477,175.883286 128.482285,176.031326 128.924316,176.530823 
	C128.924316,176.530823 129.120377,176.972778 129.045197,177.503067 
	C129.079330,177.678314 129.113449,177.853546 129.126114,178.549911 
	C129.387360,178.752319 129.648605,178.954727 129.889069,179.052292 
	C129.889069,179.052292 129.814423,179.128784 129.965317,179.999893 
	C130.311325,181.437027 130.657333,182.874161 130.587830,183.637909 
	C123.972748,179.682236 119.779991,173.674744 116.350601,166.980667 
	C115.064857,164.470917 113.701729,161.969696 112.087242,159.665390 
	C107.478226,153.087112 100.011551,151.494476 93.392342,156.216171 
	C97.460518,163.100021 101.896088,169.892593 105.526489,177.091217 
	C107.028641,180.069794 107.578468,184.006348 107.197090,187.351700 
	C106.526764,193.231705 110.675674,200.606110 116.382217,202.061005 
	C121.658737,203.406250 125.809044,201.560638 129.226883,197.633682 
	C132.729980,193.608780 133.534164,189.188843 131.843124,184.559738 
	C135.869873,191.197571 141.875015,192.759949 149.219086,191.890411 
	C154.924759,191.214874 160.743698,191.519974 166.462082,190.914688 
	C168.457809,190.703430 170.303436,189.073853 172.868912,187.866501 
	C174.653320,185.013168 176.437729,182.159851 178.944061,178.152161 
	C173.535828,178.152161 169.768051,178.152161 165.079742,178.018707 
	C162.109665,178.008347 159.069931,178.399109 156.185013,177.898270 
	C151.249802,177.041473 145.464188,178.263275 142.068893,172.973679 
	C142.068893,172.973679 142.098434,172.917694 142.017181,172.226791 
	C140.697433,170.131561 139.377686,168.036346 138.016174,166.004715 
	C138.016174,166.004715 138.071350,165.945465 137.986282,165.239105 
	C135.671219,161.480530 133.356155,157.721939 131.002426,153.998169 
	C131.002426,153.998169 131.044785,153.960388 130.947037,153.266327 
	C127.797966,146.501923 124.016037,140.734543 114.543663,143.034409 
	C114.376060,143.020828 114.208450,143.007248 113.839485,142.603622 
	C113.521011,142.724777 113.202545,142.845932 112.461220,142.977539 
	C112.461220,142.977539 112.057617,143.104095 111.331871,143.179108 
	C107.938705,147.379303 112.582954,149.261276 113.892410,152.002548 
	C113.892410,152.002548 113.865074,152.099045 113.953339,152.770599 
	C114.935509,154.211929 115.917686,155.653259 116.888870,157.038589 
	C116.888870,157.038589 116.873955,157.103455 116.939796,157.778992 
M69.247620,86.918823 
	C68.511452,86.997940 67.775291,87.077057 66.312241,87.043381 
	C63.288059,89.186745 59.490257,90.762589 57.409958,93.598373 
	C53.728161,98.617249 51.132114,104.426064 48.007137,109.861443 
	C42.801540,118.915695 44.716942,121.628334 52.087914,129.162094 
	C52.773849,128.529877 53.660297,128.005203 54.135109,127.228783 
	C57.831902,121.183876 62.008995,115.344940 64.923386,108.935677 
	C67.488106,103.295433 71.263542,100.876205 78.000488,100.951866 
	C87.020996,100.911026 96.041512,100.870178 105.735023,100.689804 
	C106.709358,100.123207 107.638672,99.452599 108.665825,99.008034 
	C113.059776,97.106285 115.654404,92.856537 115.518219,87.074081 
	C102.063332,87.074081 88.579918,87.074081 74.960457,87.074081 
	C80.432442,80.915817 87.238174,80.544022 94.328400,80.999725 
	C96.981163,81.170212 99.662498,81.156265 102.316528,80.993492 
	C108.077423,80.640160 113.123619,74.257957 112.419365,67.979240 
	C107.447342,67.979240 102.398186,68.332336 97.419006,67.892754 
	C90.706924,67.300179 83.736115,68.471947 77.714882,63.367950 
	C73.220955,59.558594 64.406387,61.885197 61.255745,66.694824 
	C57.415596,72.557014 58.952785,80.245148 64.846344,84.189133 
	C66.458572,85.268028 68.264000,86.058235 69.997108,86.999695 
	C69.997108,86.999695 69.987000,86.982170 69.247620,86.918823 
M601.000549,115.500000 
	C600.999756,129.654724 601.050476,143.809799 600.955627,157.963882 
	C600.936157,160.874084 601.448853,162.946289 604.880554,162.887009 
	C621.503601,162.599899 638.155579,162.805206 654.739258,161.839233 
	C666.040283,161.180954 675.328857,152.106949 677.709656,141.491974 
	C680.049500,131.059647 675.796875,121.251915 666.108276,114.703537 
	C665.337646,114.182709 664.617554,113.587234 663.696472,112.892540 
	C664.455200,112.207214 664.911316,111.760689 665.402466,111.356773 
	C673.744080,104.496735 675.743591,95.731018 672.436584,85.823517 
	C669.101929,75.832924 660.484680,72.646996 651.265442,72.188499 
	C636.148071,71.436691 620.977356,71.778030 605.829956,71.591156 
	C602.354553,71.548294 600.849487,72.712044 600.915955,76.533417 
	C601.136108,89.185600 601.000122,101.843994 601.000549,115.500000 
M288.396759,69.996071 
	C281.286835,70.502365 274.821625,72.804817 269.078857,77.035728 
	C254.418823,87.836319 255.865112,109.976593 271.891052,118.495049 
	C275.372253,120.345444 279.192596,121.627655 282.959686,122.855789 
	C290.657227,125.365288 298.495026,127.457535 306.139984,130.110931 
	C311.748047,132.057373 313.517517,136.103775 311.672516,141.076096 
	C310.254211,144.898468 306.951782,145.785126 303.478729,146.596527 
	C287.532349,150.322021 279.293854,145.930359 276.402161,131.925232 
	C269.715302,131.925232 262.995972,131.925232 256.044525,131.925232 
	C255.928055,144.034302 260.494232,153.182343 270.900543,159.036484 
	C286.097870,167.585876 301.865997,166.757568 317.426178,160.659882 
	C328.710419,156.237854 335.381134,140.280899 332.270386,128.484833 
	C329.300568,117.223236 320.273529,113.366264 310.715790,110.156158 
	C302.433472,107.374435 294.016144,104.995178 285.663300,102.422432 
	C282.231354,101.365372 279.635437,99.512558 279.700745,95.486214 
	C279.769653,91.236877 282.471436,88.721664 286.051483,87.472466 
	C294.286652,84.598938 306.605499,85.835556 309.196716,96.926720 
	C309.466522,98.081673 310.848450,99.801445 311.778229,99.843384 
	C317.691437,100.110062 323.622559,99.979012 329.747620,99.979012 
	C330.298462,88.716919 326.293610,80.514526 317.137726,75.149467 
	C308.519440,70.099434 299.018707,69.161385 288.396759,69.996071 
M589.611816,133.976074 
	C591.272156,110.633530 578.340027,95.248474 556.238037,94.852951 
	C540.349426,94.568619 527.721863,101.210533 522.587585,116.502342 
	C517.536499,131.546219 521.843872,149.815231 533.436523,157.987274 
	C551.863831,170.977280 584.831543,166.177887 589.611816,133.976074 
M343.552002,111.159714 
	C342.168671,115.711792 340.228302,120.178421 339.514313,124.833176 
	C337.864807,135.586700 341.952637,151.812820 353.621307,158.943237 
	C366.464661,166.791443 379.670074,166.922150 392.326965,159.732574 
	C404.643433,152.736343 408.758331,140.835846 408.065186,127.032372 
	C407.286591,111.527664 398.697113,99.452278 384.989410,96.388016 
	C367.406738,92.457565 353.101288,95.543076 343.552002,111.159714 
M757.869263,94.926468 
	C741.393677,93.375786 728.524902,99.367378 722.386780,111.449432 
	C718.813354,118.483101 718.475708,125.941650 718.889221,133.680374 
	C719.959290,153.707748 737.501953,167.979507 757.148560,164.483109 
	C778.198547,160.736954 788.787659,146.807266 786.901611,125.343826 
	C785.424500,108.534798 774.486938,96.755089 757.869263,94.926468 
M860.275696,139.132416 
	C859.551575,138.430298 858.846741,137.144455 858.100159,137.119705 
	C852.797363,136.943878 847.486023,137.026062 842.078857,137.026062 
	C841.699585,138.177673 841.350769,139.093384 841.095764,140.034454 
	C839.567688,145.672501 835.445435,149.381424 830.023071,149.966110 
	C824.910461,150.517380 820.849182,148.087418 817.972107,142.883728 
	C813.359131,134.540405 813.735779,125.977585 817.125916,117.455116 
	C818.960571,112.842850 822.424316,110.133797 827.755432,109.854340 
	C833.300415,109.563683 837.313904,111.188728 840.005493,116.372887 
	C840.990234,118.269630 843.297729,120.317924 845.291687,120.673874 
	C849.168274,121.365936 853.251221,120.985054 857.245850,120.905685 
	C860.085022,120.849274 860.848083,119.437294 860.165833,116.607552 
	C858.504700,109.716896 855.189270,104.025146 849.253174,99.996834 
	C840.682678,94.180901 830.980347,93.931175 821.436462,95.517853 
	C806.380859,98.020844 795.468750,111.421799 795.020447,126.638145 
	C794.434082,146.540817 803.030029,159.706009 819.682434,163.768585 
	C837.100830,168.018051 857.023193,160.424484 860.275696,139.132416 
M438.120239,142.067932 
	C437.433807,135.553253 436.006287,129.008560 436.268524,122.532295 
	C436.532867,116.004288 441.963867,111.018158 447.829590,109.952942 
	C453.419006,108.937912 458.219330,110.500015 460.457245,115.538788 
	C462.577820,120.313492 465.724121,121.332489 470.257996,120.932800 
	C472.570129,120.728973 474.923096,120.747658 477.240906,120.907677 
	C480.464813,121.130226 481.947205,119.334969 480.859680,116.725121 
	C478.881195,111.977257 477.091827,106.632675 473.620361,103.122551 
	C463.462860,92.851913 450.596222,93.015892 437.845215,96.720627 
	C424.841400,100.498802 418.734528,110.333633 416.682190,123.365150 
	C413.643555,142.659317 422.651489,162.272095 446.347870,164.554199 
	C464.660553,166.317810 480.386169,155.650528 481.294769,137.172089 
	C475.321014,137.172089 469.354004,137.172089 463.303284,137.172089 
	C461.146484,143.273285 458.822449,149.322418 451.125488,149.902847 
	C445.441162,150.331482 441.241943,147.707718 438.120239,142.067932 
M688.136169,124.499954 
	C688.136230,135.826553 688.035767,147.155136 688.259766,158.477310 
	C688.288757,159.941513 689.908142,162.546677 690.939209,162.623184 
	C696.507324,163.036316 702.122131,162.818878 707.760376,162.818878 
	C707.760376,132.224716 707.760376,102.308990 707.760376,72.301720 
	C701.165771,72.301720 694.786011,72.301720 688.136169,72.301720 
	C688.136169,89.573425 688.136169,106.536682 688.136169,124.499954 
M491.063019,114.500999 
	C491.063019,130.450348 491.063019,146.399704 491.063019,162.891205 
	C496.845673,162.891205 502.161926,163.181274 507.403076,162.682159 
	C508.673798,162.561142 510.670197,159.848160 510.685822,158.310318 
	C510.882263,138.981033 510.830994,119.648109 510.629761,100.318344 
	C510.615570,98.957909 508.998474,96.514786 507.998718,96.446373 
	C502.439850,96.065979 496.841400,96.263840 491.439331,96.263840 
	C491.213837,97.351120 491.088501,97.676704 491.087372,98.002716 
	C491.069855,103.169075 491.068268,108.335503 491.063019,114.500999 
M510.816650,84.028419 
	C510.782623,81.208481 511.082794,78.326317 510.574158,75.594749 
	C510.318237,74.220245 508.661499,72.140327 507.521606,72.061256 
	C502.132538,71.687431 496.703186,71.894493 491.354919,71.894493 
	C491.354919,77.417908 491.354919,82.491013 491.354919,87.945518 
	C496.914276,87.945518 502.197754,88.122734 507.451691,87.807686 
	C508.611511,87.738136 509.666809,85.925171 510.816650,84.028419 
z"/>
<path fill="#FCFCFC" opacity="1.000000" stroke="none" 
	d="
M601.000610,115.000000 
	C601.000122,101.843994 601.136108,89.185600 600.915955,76.533417 
	C600.849487,72.712044 602.354553,71.548294 605.829956,71.591156 
	C620.977356,71.778030 636.148071,71.436691 651.265442,72.188499 
	C660.484680,72.646996 669.101929,75.832924 672.436584,85.823517 
	C675.743591,95.731018 673.744080,104.496735 665.402466,111.356773 
	C664.911316,111.760689 664.455200,112.207214 663.696472,112.892540 
	C664.617554,113.587234 665.337646,114.182709 666.108276,114.703537 
	C675.796875,121.251915 680.049500,131.059647 677.709656,141.491974 
	C675.328857,152.106949 666.040283,161.180954 654.739258,161.839233 
	C638.155579,162.805206 621.503601,162.599899 604.880554,162.887009 
	C601.448853,162.946289 600.936157,160.874084 600.955627,157.963882 
	C601.050476,143.809799 600.999756,129.654724 601.000610,115.000000 
M622.704041,131.506073 
	C622.704041,136.253326 622.704041,141.000565 622.704041,146.455566 
	C631.566467,145.949005 639.844238,145.686172 648.077026,144.933121 
	C653.795532,144.410034 656.480469,140.910736 656.802795,134.724716 
	C657.106812,128.889832 654.446838,124.682510 648.812927,124.019730 
	C640.324402,123.021118 631.741211,122.826256 622.703308,122.258644 
	C622.703308,125.604210 622.703308,128.056946 622.704041,131.506073 
M622.826111,92.653008 
	C622.826111,97.744431 622.826111,102.835854 622.826111,108.013397 
	C630.064880,108.013397 636.705688,108.224403 643.326477,107.950920 
	C649.312988,107.703629 652.669678,104.431557 653.002991,99.280891 
	C653.362366,93.728073 650.529053,89.932137 644.345154,89.184090 
	C637.941833,88.409500 631.433411,88.396011 624.970093,88.378418 
	C624.258484,88.376472 623.540955,90.534958 622.826111,92.653008 
z"/>
<path fill="#FCFCFC" opacity="1.000000" stroke="none" 
	d="
M288.824402,69.972916 
	C299.018707,69.161385 308.519440,70.099434 317.137726,75.149467 
	C326.293610,80.514526 330.298462,88.716919 329.747620,99.979012 
	C323.622559,99.979012 317.691437,100.110062 311.778229,99.843384 
	C310.848450,99.801445 309.466522,98.081673 309.196716,96.926720 
	C306.605499,85.835556 294.286652,84.598938 286.051483,87.472466 
	C282.471436,88.721664 279.769653,91.236877 279.700745,95.486214 
	C279.635437,99.512558 282.231354,101.365372 285.663300,102.422432 
	C294.016144,104.995178 302.433472,107.374435 310.715790,110.156158 
	C320.273529,113.366264 329.300568,117.223236 332.270386,128.484833 
	C335.381134,140.280899 328.710419,156.237854 317.426178,160.659882 
	C301.865997,166.757568 286.097870,167.585876 270.900543,159.036484 
	C260.494232,153.182343 255.928055,144.034302 256.044525,131.925232 
	C262.995972,131.925232 269.715302,131.925232 276.402161,131.925232 
	C279.293854,145.930359 287.532349,150.322021 303.478729,146.596527 
	C306.951782,145.785126 310.254211,144.898468 311.672516,141.076096 
	C313.517517,136.103775 311.748047,132.057373 306.139984,130.110931 
	C298.495026,127.457535 290.657227,125.365288 282.959686,122.855789 
	C279.192596,121.627655 275.372253,120.345444 271.891052,118.495049 
	C255.865112,109.976593 254.418823,87.836319 269.078857,77.035728 
	C274.821625,72.804817 281.286835,70.502365 288.824402,69.972916 
z"/>
<path fill="#FBFBFB" opacity="1.000000" stroke="none" 
	d="
M589.515625,134.400894 
	C584.831543,166.177887 551.863831,170.977280 533.436523,157.987274 
	C521.843872,149.815231 517.536499,131.546219 522.587585,116.502342 
	C527.721863,101.210533 540.349426,94.568619 556.238037,94.852951 
	C578.340027,95.248474 591.272156,110.633530 589.515625,134.400894 
M569.073853,122.595665 
	C567.781494,114.919304 564.371399,110.879410 558.416443,109.969879 
	C550.604126,108.776672 545.033386,111.040894 542.466248,117.010704 
	C538.964783,125.153366 538.912231,133.532806 542.223938,141.751694 
	C544.211853,146.685379 550.504150,150.242462 555.940491,150.037552 
	C561.104675,149.842896 566.798340,145.976486 567.912781,140.496307 
	C569.039307,134.956467 568.809998,129.140915 569.073853,122.595665 
z"/>
<path fill="#FBFBFB" opacity="1.000000" stroke="none" 
	d="
M343.764038,110.854156 
	C353.101288,95.543076 367.406738,92.457565 384.989410,96.388016 
	C398.697113,99.452278 407.286591,111.527664 408.065186,127.032372 
	C408.758331,140.835846 404.643433,152.736343 392.326965,159.732574 
	C379.670074,166.922150 366.464661,166.791443 353.621307,158.943237 
	C341.952637,151.812820 337.864807,135.586700 339.514313,124.833176 
	C340.228302,120.178421 342.168671,115.711792 343.764038,110.854156 
M373.566742,149.818268 
	C382.283569,148.732651 386.371887,145.815170 387.734406,137.760956 
	C388.653351,132.328720 388.607056,126.495117 387.712341,121.051468 
	C386.456390,113.409630 380.535797,109.241219 373.169647,109.462830 
	C366.150024,109.674011 361.051178,114.054741 359.689789,121.665413 
	C358.994171,125.553894 358.483185,129.671677 358.994171,133.539795 
	C360.138702,142.203522 363.764832,149.360748 373.566742,149.818268 
z"/>
<path fill="#FBFBFB" opacity="1.000000" stroke="none" 
	d="
M758.285278,94.949188 
	C774.486938,96.755089 785.424500,108.534798 786.901611,125.343826 
	C788.787659,146.807266 778.198547,160.736954 757.148560,164.483109 
	C737.501953,167.979507 719.959290,153.707748 718.889221,133.680374 
	C718.475708,125.941650 718.813354,118.483101 722.386780,111.449432 
	C728.524902,99.367378 741.393677,93.375786 758.285278,94.949188 
M740.604736,116.315735 
	C736.967468,124.591942 736.783691,132.916870 739.988281,141.397232 
	C742.227722,147.323227 746.803772,149.700821 752.661011,149.947617 
	C758.573303,150.196732 762.730286,147.246765 765.224976,141.952942 
	C768.007263,136.048981 768.323486,129.877121 767.341003,123.498573 
	C766.394409,117.353508 764.015991,112.149292 757.658325,110.348572 
	C751.152405,108.505898 745.111511,109.467484 740.604736,116.315735 
z"/>
<path fill="#FBFBFB" opacity="1.000000" stroke="none" 
	d="
M860.187012,139.527405 
	C857.023193,160.424484 837.100830,168.018051 819.682434,163.768585 
	C803.030029,159.706009 794.434082,146.540817 795.020447,126.638145 
	C795.468750,111.421799 806.380859,98.020844 821.436462,95.517853 
	C830.980347,93.931175 840.682678,94.180901 849.253174,99.996834 
	C855.189270,104.025146 858.504700,109.716896 860.165833,116.607552 
	C860.848083,119.437294 860.085022,120.849274 857.245850,120.905685 
	C853.251221,120.985054 849.168274,121.365936 845.291687,120.673874 
	C843.297729,120.317924 840.990234,118.269630 840.005493,116.372887 
	C837.313904,111.188728 833.300415,109.563683 827.755432,109.854340 
	C822.424316,110.133797 818.960571,112.842850 817.125916,117.455116 
	C813.735779,125.977585 813.359131,134.540405 817.972107,142.883728 
	C820.849182,148.087418 824.910461,150.517380 830.023071,149.966110 
	C835.445435,149.381424 839.567688,145.672501 841.095764,140.034454 
	C841.350769,139.093384 841.699585,138.177673 842.078857,137.026062 
	C847.486023,137.026062 852.797363,136.943878 858.100159,137.119705 
	C858.846741,137.144455 859.551575,138.430298 860.187012,139.527405 
z"/>
<path fill="#FBFBFB" opacity="1.000000" stroke="none" 
	d="
M438.299683,142.410767 
	C441.241943,147.707718 445.441162,150.331482 451.125488,149.902847 
	C458.822449,149.322418 461.146484,143.273285 463.303284,137.172089 
	C469.354004,137.172089 475.321014,137.172089 481.294769,137.172089 
	C480.386169,155.650528 464.660553,166.317810 446.347870,164.554199 
	C422.651489,162.272095 413.643555,142.659317 416.682190,123.365150 
	C418.734528,110.333633 424.841400,100.498802 437.845215,96.720627 
	C450.596222,93.015892 463.462860,92.851913 473.620361,103.122551 
	C477.091827,106.632675 478.881195,111.977257 480.859680,116.725121 
	C481.947205,119.334969 480.464813,121.130226 477.240906,120.907677 
	C474.923096,120.747658 472.570129,120.728973 470.257996,120.932800 
	C465.724121,121.332489 462.577820,120.313492 460.457245,115.538788 
	C458.219330,110.500015 453.419006,108.937912 447.829590,109.952942 
	C441.963867,111.018158 436.532867,116.004288 436.268524,122.532295 
	C436.006287,129.008560 437.433807,135.553253 438.299683,142.410767 
z"/>
<path fill="#14A078" opacity="1.000000" stroke="none" 
	d="
M70.008667,157.029068 
	C68.925621,157.378738 67.738136,157.548447 66.776146,158.106735 
	C59.464443,162.349884 53.462208,158.153076 50.112839,151.010300 
	C47.423508,145.275116 51.179291,138.930099 57.440830,135.799164 
	C60.525799,134.256592 63.199722,131.148911 65.102814,128.143539 
	C68.835152,122.249458 71.870178,115.916031 75.248306,109.794510 
	C77.054329,106.521812 79.363853,106.469666 81.836617,109.279488 
	C86.099358,114.123291 86.803108,119.150963 83.194252,124.653252 
	C80.582771,128.634888 77.430946,132.410706 75.645676,136.742218 
	C73.989410,140.760727 73.825569,145.394363 73.004585,149.757141 
	C73.580727,149.913712 74.156868,150.070267 74.733009,150.226837 
	C75.646538,148.479645 76.516647,146.708069 77.480949,144.989380 
	C82.236160,136.514038 87.041275,128.066635 91.779930,119.582085 
	C95.699646,112.563850 97.220833,112.475647 101.965012,119.928360 
	C102.052460,123.997795 102.081810,127.259911 102.111160,130.522018 
	C102.111160,130.522018 102.180824,130.738846 101.846741,131.007324 
	C101.347771,131.865845 101.182892,132.455917 101.018005,133.045975 
	C101.018005,133.045975 100.993279,133.005341 100.647690,133.060165 
	C99.898148,134.182571 99.494194,135.250137 99.090225,136.317719 
	C95.606178,142.573578 92.185127,148.865616 88.619331,155.074539 
	C85.427956,160.631485 85.762192,163.402679 89.268021,168.618408 
	C93.432129,174.813431 97.186630,181.291824 100.881706,187.782318 
	C101.274612,188.472473 100.412125,190.700363 99.572113,191.136551 
	C93.893723,194.085083 87.017883,191.551727 83.902649,186.049896 
	C79.776604,178.762878 75.170479,171.745804 71.115059,164.422012 
	C70.101952,162.592422 70.407944,160.032410 70.175583,157.390076 
	C70.165222,156.991058 70.086945,157.010056 70.008667,157.029068 
M66.715042,148.894775 
	C67.516594,145.658813 66.515221,142.833160 63.182014,142.616898 
	C61.265991,142.492599 58.364803,144.195267 57.480446,145.894424 
	C56.812828,147.177094 58.067833,150.467636 59.481071,151.608444 
	C62.112144,153.732300 64.712112,152.500443 66.715042,148.894775 
z"/>
<path fill="#FBFBFB" opacity="1.000000" stroke="none" 
	d="
M688.136169,123.999947 
	C688.136169,106.536682 688.136169,89.573425 688.136169,72.301720 
	C694.786011,72.301720 701.165771,72.301720 707.760376,72.301720 
	C707.760376,102.308990 707.760376,132.224716 707.760376,162.818878 
	C702.122131,162.818878 696.507324,163.036316 690.939209,162.623184 
	C689.908142,162.546677 688.288757,159.941513 688.259766,158.477310 
	C688.035767,147.155136 688.136230,135.826553 688.136169,123.999947 
z"/>
<path fill="#F7F7F7" opacity="1.000000" stroke="none" 
	d="
M491.063049,114.001450 
	C491.068268,108.335503 491.069855,103.169075 491.087372,98.002716 
	C491.088501,97.676704 491.213837,97.351120 491.439331,96.263840 
	C496.841400,96.263840 502.439850,96.065979 507.998718,96.446373 
	C508.998474,96.514786 510.615570,98.957909 510.629761,100.318344 
	C510.830994,119.648109 510.882263,138.981033 510.685822,158.310318 
	C510.670197,159.848160 508.673798,162.561142 507.403076,162.682159 
	C502.161926,163.181274 496.845673,162.891205 491.063019,162.891205 
	C491.063019,146.399704 491.063019,130.450348 491.063049,114.001450 
z"/>
<path fill="#11A278" opacity="1.000000" stroke="none" 
	d="
M166.893478,85.498413 
	C167.031967,85.048889 167.170471,84.599365 167.824203,83.917908 
	C168.542694,83.096779 168.745956,82.507591 168.949219,81.918396 
	C168.949219,81.918396 168.980667,81.992607 169.320755,81.927582 
	C170.066788,80.783516 170.472717,79.704491 170.878662,78.625465 
	C170.878662,78.625465 170.890823,78.308235 171.203552,78.018066 
	C171.651001,77.391159 171.785721,77.054428 171.920425,76.717697 
	C171.920425,76.717697 171.926941,76.367073 172.259308,75.963623 
	C172.402710,74.018700 172.213745,72.477234 172.024780,70.935760 
	C172.024780,70.935760 171.879135,70.677246 171.922073,70.138809 
	C171.283249,68.744125 170.601486,67.887871 169.919708,67.031624 
	C169.919708,67.031624 169.988144,67.007141 169.983459,66.688721 
	C169.348740,65.589706 168.718689,64.809120 168.088654,64.028534 
	C166.155182,60.617943 164.221710,57.207355 162.051331,53.237434 
	C161.560669,52.437290 161.306946,52.196484 161.053223,51.955677 
	C161.053223,51.955677 160.909317,51.656616 160.923386,51.142342 
	C160.551025,50.123379 160.164597,49.618687 159.778152,49.113998 
	C159.778152,49.113998 159.928345,49.009792 159.934830,48.648338 
	C160.999664,47.187683 162.110687,45.110275 163.106979,45.163925 
	C166.803741,45.362995 170.462738,46.263962 174.135910,46.901295 
	C174.135910,46.901295 174.086273,46.967777 174.150208,47.184017 
	C174.482361,47.626030 174.750565,47.851803 175.018784,48.077572 
	C175.018784,48.077572 175.167358,48.253567 175.197968,48.695065 
	C175.562881,49.409149 175.897171,49.681736 176.231476,49.954323 
	C179.740768,55.797440 183.235748,61.649220 186.764816,67.480377 
	C188.827164,70.888046 189.884949,74.378937 187.970062,78.607300 
	C188.004074,79.002869 188.021851,78.966553 188.021851,78.966553 
	C184.706390,83.889282 181.230804,88.713074 178.113739,93.758362 
	C173.648666,100.985519 169.487289,108.399681 165.098373,115.674950 
	C164.110947,117.311745 162.719467,118.704796 161.530685,120.189194 
	C154.944275,115.384453 153.200150,109.017960 156.714264,102.329376 
	C159.177261,97.641441 162.067657,93.178055 165.158234,88.192459 
	C165.790833,87.538940 165.931839,87.257057 165.972290,86.924873 
	C165.972290,86.924873 165.991745,86.990822 166.233093,86.832069 
	C166.614120,86.281685 166.753799,85.890053 166.893478,85.498413 
z"/>
<path fill="#11A279" opacity="1.000000" stroke="none" 
	d="
M127.092316,54.017845 
	C132.363876,62.384064 137.635422,70.750275 142.971527,79.786728 
	C143.401062,80.959991 143.766037,81.463028 144.131012,81.966064 
	C144.131012,81.966064 144.049545,81.957199 144.058060,82.244644 
	C144.453873,82.983047 144.841156,83.434013 145.228455,83.884979 
	C145.228455,83.884979 145.133926,83.922874 145.182343,84.137810 
	C145.504684,84.567230 145.778625,84.781723 146.052567,84.996216 
	C146.052567,84.996208 145.996475,84.997200 145.994598,85.368233 
	C145.656754,87.491692 145.320755,89.244110 144.984756,90.996536 
	C144.984756,90.996536 144.997009,90.995781 144.643021,90.986694 
	C143.202179,91.271660 142.115311,91.565704 141.028458,91.859756 
	C140.580460,91.904358 140.132446,91.948959 139.122406,91.691788 
	C137.680527,91.276398 136.800690,91.162781 135.920853,91.049164 
	C135.920853,91.049156 135.986282,91.017311 135.833237,90.780624 
	C135.097260,90.379944 134.514343,90.215950 133.931412,90.051956 
	C133.931412,90.051964 133.993332,90.009247 133.890198,89.792282 
	C133.479233,89.411369 133.171402,89.247437 132.863556,89.083504 
	C132.863556,89.083504 132.932373,89.027199 132.847504,88.816360 
	C132.462906,88.427574 132.163193,88.249634 131.863480,88.071686 
	C131.863480,88.071686 131.945999,88.050667 131.858215,87.834656 
	C131.473724,87.434792 131.177017,87.250923 130.880325,87.067062 
	C130.880325,87.067062 130.966583,87.041527 130.873749,86.824600 
	C130.491684,86.414856 130.202469,86.222038 129.913239,86.029228 
	C129.913239,86.029228 129.987595,86.012192 129.959045,85.709267 
	C129.495621,84.970505 129.060745,84.534668 128.625854,84.098831 
	C124.148453,76.634880 119.671059,69.170921 115.069389,61.019638 
	C114.135826,59.584358 113.326530,58.836411 112.517235,58.088467 
	C112.517235,58.088467 112.304016,58.143818 111.906479,57.775150 
	C103.139915,57.271416 94.760109,56.830265 86.406197,57.124420 
	C81.917450,57.282478 80.433289,55.697861 80.880508,51.562527 
	C80.880508,51.562527 80.845802,51.297497 81.161057,51.000317 
	C81.653702,50.132820 81.831100,49.562504 82.008499,48.992188 
	C82.008499,48.992188 82.003883,49.001945 82.230766,48.894455 
	C82.621376,48.497662 82.785103,48.208359 82.948830,47.919060 
	C82.948830,47.919060 82.993042,47.985840 83.211792,47.850906 
	C83.589828,47.383614 83.749107,47.051262 83.908386,46.718910 
	C83.996109,46.436741 84.172150,46.229649 84.895325,45.955811 
	C85.593353,45.549046 85.832565,45.284100 86.071785,45.019154 
	C86.071785,45.019154 86.311760,44.872833 86.953491,44.915096 
	C98.748245,44.953651 109.901276,44.949944 121.054298,44.946236 
	C121.054298,44.946236 121.004501,45.000175 121.112106,45.208641 
	C121.506332,45.594650 121.792946,45.772198 122.079559,45.949745 
	C122.079559,45.949749 122.008171,45.992970 122.114120,46.201256 
	C122.499626,46.597797 122.779190,46.786049 123.058746,46.974300 
	C123.058746,46.974300 122.999146,46.994972 123.028214,47.307468 
	C123.503380,48.050568 123.949471,48.481171 124.395569,48.911781 
	C124.923119,49.672581 125.450668,50.433380 126.018860,51.809601 
	C126.403778,52.955963 126.748047,53.486904 127.092316,54.017845 
z"/>
<path fill="#10A278" opacity="1.000000" stroke="none" 
	d="
M77.085907,100.809532 
	C71.263542,100.876205 67.488106,103.295433 64.923386,108.935677 
	C62.008995,115.344940 57.831902,121.183876 54.135109,127.228783 
	C53.660297,128.005203 52.773849,128.529877 52.087914,129.162094 
	C44.716942,121.628334 42.801540,118.915695 48.007137,109.861443 
	C51.132114,104.426064 53.728161,98.617249 57.409958,93.598373 
	C59.490257,90.762589 63.288059,89.186745 66.876244,87.321732 
	C68.289162,87.394104 69.138084,87.188141 69.987000,86.982170 
	C69.987000,86.982170 69.997108,86.999695 70.372589,87.161636 
	C72.530273,87.549828 74.311447,87.962013 76.094841,87.971901 
	C87.021576,88.032509 97.948898,87.982277 108.875816,88.022850 
	C110.538589,88.029022 112.200325,88.315536 113.862549,88.472382 
	C110.605247,92.990829 109.364319,99.152031 102.380272,98.117195 
	C101.689270,98.014809 100.792679,99.299843 99.524017,99.960030 
	C91.732986,100.255943 84.409447,100.532738 77.085907,100.809532 
z"/>
<path fill="#10A177" opacity="1.000000" stroke="none" 
	d="
M207.990448,128.032425 
	C204.604416,133.938934 201.218399,139.845444 197.061859,145.891876 
	C191.858322,146.187057 187.425690,146.460480 182.992188,146.475357 
	C169.901047,146.519302 156.809540,146.460953 143.718185,146.442627 
	C143.718185,146.442627 143.600433,146.401138 143.698456,146.036850 
	C143.488144,145.092606 143.179794,144.512665 142.871460,143.932709 
	C143.624939,142.387604 144.378433,140.842484 145.713440,138.990112 
	C146.488983,138.287704 146.682983,137.892593 146.876999,137.497467 
	C146.903030,137.274216 147.009552,137.100266 147.658356,136.881042 
	C148.399429,136.492722 148.678680,136.198959 148.957932,135.905197 
	C148.957932,135.905197 148.972778,135.996521 149.391724,135.982819 
	C155.240677,135.645279 160.666916,135.184097 166.101730,135.034500 
	C172.066666,134.870300 178.046524,135.151901 184.004471,134.889481 
	C185.681168,134.815628 187.303741,133.512711 188.951141,132.773529 
	C189.004761,132.491135 189.149948,132.268417 189.867798,131.915161 
	C190.582336,131.170395 190.815811,130.615875 191.049286,130.061340 
	C191.049286,130.061340 190.994705,130.031723 191.240829,129.903503 
	C191.637497,129.484909 191.788040,129.194534 191.938599,128.904175 
	C191.938599,128.904175 191.964401,128.982986 192.201172,128.822556 
	C192.603546,128.084732 192.769165,127.507339 192.934784,126.929947 
	C192.934784,126.929947 192.998428,126.978355 193.224030,126.808434 
	C193.573517,126.249596 193.697403,125.860672 193.821304,125.471756 
	C193.821304,125.471756 193.781662,125.243263 194.112976,124.986938 
	C194.577698,124.357269 194.711090,123.983917 194.844498,123.610580 
	C198.084702,118.374947 201.296982,113.121719 204.580200,107.913223 
	C205.731903,106.086143 207.088837,106.099586 208.816284,108.176422 
	C209.458771,108.780060 209.742447,108.929024 210.085602,108.964714 
	C210.085602,108.964714 210.015884,108.986618 210.110504,109.198242 
	C210.485001,109.606369 210.764908,109.802879 211.044800,109.999390 
	C211.044800,109.999390 210.993347,109.998138 211.008881,110.285416 
	C211.358429,111.050934 211.692459,111.529175 212.026489,112.007416 
	C212.026489,112.007416 211.991501,112.001846 211.986008,112.439056 
	C211.989746,115.597252 211.998962,118.318253 212.008209,121.039246 
	C212.008209,121.039246 211.988068,121.001411 211.743347,121.158997 
	C211.348633,121.901871 211.198639,122.487167 211.048645,123.072456 
	C211.048645,123.072456 211.011642,123.011307 210.774429,123.165031 
	C210.369675,123.900986 210.202133,124.483215 210.034576,125.065453 
	C210.034592,125.065453 210.003067,125.008438 209.756927,125.173859 
	C209.367630,125.741280 209.224457,126.143272 209.081284,126.545265 
	C209.081284,126.545265 209.180374,126.731880 208.876892,126.943207 
	C208.379089,127.447166 208.184769,127.739792 207.990448,128.032425 
z"/>
<path fill="#179E77" opacity="1.000000" stroke="none" 
	d="
M143.844559,146.821289 
	C156.809540,146.460953 169.901047,146.519302 182.992188,146.475357 
	C187.425690,146.460480 191.858322,146.187057 196.768280,146.062439 
	C195.621597,147.054398 193.997955,148.015701 192.561111,148.866425 
	C194.252365,150.844070 196.226151,152.868240 197.869980,155.132019 
	C201.537888,160.183243 201.025787,166.225327 196.757217,170.508133 
	C192.479630,174.800003 186.803375,175.111832 181.528229,171.349899 
	C180.181824,170.389725 178.825775,169.443085 176.946884,167.950623 
	C166.839676,167.317886 157.259720,167.224762 147.679779,167.131638 
	C144.046738,167.096237 143.583557,165.484909 144.847992,162.307297 
	C147.406174,155.878387 152.389786,153.449142 158.830307,153.189209 
	C160.476883,153.122726 162.161911,153.259613 163.787262,153.543533 
	C171.669769,154.920486 179.069061,154.089157 186.208221,148.409149 
	C183.974426,148.277496 182.273666,148.094742 180.572464,148.090515 
	C170.270187,148.064926 159.967453,148.124176 149.665787,148.041855 
	C147.765381,148.026672 145.869110,147.493851 143.844559,146.821289 
M182.961533,160.639816 
	C183.437836,161.987122 183.568985,164.130371 184.461685,164.517471 
	C186.372391,165.346069 188.925201,165.960190 190.731995,165.313202 
	C191.919083,164.888138 193.203217,161.770477 192.738373,160.466721 
	C192.191498,158.932861 189.846375,157.221939 188.195343,157.130173 
	C186.545349,157.038467 184.789474,158.852219 182.961533,160.639816 
z"/>
<path fill="#179E77" opacity="1.000000" stroke="none" 
	d="
M99.991508,99.940918 
	C100.792679,99.299843 101.689270,98.014809 102.380272,98.117195 
	C109.364319,99.152031 110.605247,92.990829 113.862549,88.472382 
	C112.200325,88.315536 110.538589,88.029022 108.875816,88.022850 
	C97.948898,87.982277 87.021576,88.032509 76.094841,87.971901 
	C74.311447,87.962013 72.530273,87.549828 70.364426,87.152252 
	C68.264000,86.058235 66.458572,85.268028 64.846344,84.189133 
	C58.952785,80.245148 57.415596,72.557014 61.255745,66.694824 
	C64.406387,61.885197 73.220955,59.558594 77.714882,63.367950 
	C83.736115,68.471947 90.706924,67.300179 97.419006,67.892754 
	C102.398186,68.332336 107.447342,67.979240 112.419365,67.979240 
	C113.123619,74.257957 108.077423,80.640160 102.316528,80.993492 
	C99.662498,81.156265 96.981163,81.170212 94.328400,80.999725 
	C87.238174,80.544022 80.432442,80.915817 74.960457,87.074081 
	C88.579918,87.074081 102.063332,87.074081 115.518219,87.074081 
	C115.654404,92.856537 113.059776,97.106285 108.665825,99.008034 
	C107.638672,99.452599 106.709358,100.123207 105.123329,100.500549 
	C103.004929,100.187836 101.498215,100.064377 99.991508,99.940918 
M76.248810,75.680496 
	C77.906105,72.239380 76.105942,70.030312 73.128662,69.333145 
	C71.564278,68.966827 68.293541,70.156784 68.019592,71.218445 
	C67.470795,73.345276 67.632256,76.680405 68.985016,78.043831 
	C71.281799,80.358727 74.142471,79.249130 76.248810,75.680496 
z"/>
<path fill="#189F78" opacity="1.000000" stroke="none" 
	d="
M130.982742,184.344910 
	C133.534164,189.188843 132.729980,193.608780 129.226883,197.633682 
	C125.809044,201.560638 121.658737,203.406250 116.382217,202.061005 
	C110.675674,200.606110 106.526764,193.231705 107.197090,187.351700 
	C107.578468,184.006348 107.028641,180.069794 105.526489,177.091217 
	C101.896088,169.892593 97.460518,163.100021 93.392342,156.216171 
	C100.011551,151.494476 107.478226,153.087112 112.087242,159.665390 
	C113.701729,161.969696 115.064857,164.470917 116.350601,166.980667 
	C119.779991,173.674744 123.972748,179.682236 130.791779,183.954788 
	C130.995712,184.271667 130.982742,184.344910 130.982742,184.344910 
M116.054558,193.281357 
	C118.984924,195.405441 121.861786,195.980347 124.113571,192.470261 
	C125.939430,189.624146 124.623398,187.168671 122.096710,185.793060 
	C120.746651,185.058044 117.550995,184.969330 117.212341,185.628616 
	C116.145775,187.705002 116.036758,190.273254 116.054558,193.281357 
z"/>
<path fill="#169F78" opacity="1.000000" stroke="none" 
	d="
M187.985809,79.011337 
	C189.023651,78.801453 190.166183,78.772095 191.122131,78.334816 
	C198.663956,74.884933 205.698608,77.162773 209.062958,84.221565 
	C211.540634,89.420036 208.443237,97.908936 201.660995,99.898613 
	C194.602066,101.969452 193.161011,107.678848 190.137787,112.566505 
	C186.803299,117.957405 183.657318,123.464928 180.443024,128.898346 
	C173.296799,124.938660 170.817932,117.907646 174.326859,111.481728 
	C177.088745,106.423851 180.582886,101.770523 183.580505,96.833511 
	C184.372803,95.528633 184.563171,93.847755 184.975647,92.324821 
	C186.114014,88.121864 187.223663,83.911125 188.183258,79.335007 
	C188.021851,78.966553 188.004074,79.002869 187.985809,79.011337 
M201.881531,86.909851 
	C198.959167,83.391609 195.217209,82.782890 193.448517,85.864830 
	C192.615829,87.315750 192.303650,90.030251 193.128586,91.220924 
	C194.136536,92.675713 197.537140,94.331352 198.226196,93.785065 
	C199.990616,92.386208 200.826248,89.815796 201.881531,86.909851 
z"/>
<path fill="#0DA479" opacity="1.000000" stroke="none" 
	d="
M127.039818,174.011459 
	C127.039818,174.011459 126.913696,173.641144 126.932327,173.047211 
	C125.109734,168.644333 125.718674,163.147720 119.835403,162.122940 
	C119.835403,162.122940 119.880043,161.998291 119.922668,161.669312 
	C118.934845,159.928055 117.904404,158.515747 116.873955,157.103455 
	C116.873955,157.103455 116.888870,157.038589 116.933456,156.674835 
	C115.940392,154.907059 114.902733,153.503052 113.865074,152.099045 
	C113.865074,152.099045 113.892410,152.002548 113.934082,151.649689 
	C113.336372,148.565933 112.696991,145.835007 112.057617,143.104095 
	C112.057617,143.104095 112.461220,142.977539 112.961800,142.989258 
	C113.655190,142.998535 113.848007,142.996094 114.040833,142.993652 
	C114.208450,143.007248 114.376060,143.020828 115.064552,143.343384 
	C121.167603,143.870071 125.172600,146.447342 127.821686,151.413483 
	C128.412231,152.520538 129.945541,153.124680 131.044785,153.960388 
	C131.044785,153.960388 131.002426,153.998169 131.002594,154.378815 
	C131.307510,159.784454 133.844467,163.398895 138.071350,165.945465 
	C138.071350,165.945465 138.016174,166.004715 138.014160,166.377075 
	C137.879639,169.795639 138.175079,172.558350 142.098434,172.917694 
	C142.098434,172.917694 142.068893,172.973679 142.044632,173.352982 
	C141.612152,178.461823 145.351578,178.699173 148.291794,178.877213 
	C154.175171,179.233459 160.094757,178.991760 166.136444,179.309326 
	C166.516083,182.748398 166.758652,185.875122 166.586243,189.056946 
	C158.589935,189.406448 151.008591,189.701370 143.427216,189.994995 
	C139.370682,190.152100 136.767029,188.201065 134.763519,184.722656 
	C133.546112,182.609039 131.492432,180.977097 129.814423,179.128784 
	C129.814423,179.128784 129.889069,179.052292 129.849396,178.870499 
	C129.671829,178.385605 129.451126,178.165634 129.147583,178.028778 
	C129.113449,177.853546 129.079330,177.678314 129.227203,177.117615 
	C129.203537,176.510010 128.997894,176.287872 128.792236,176.065735 
	C128.482285,176.031326 128.242477,175.883286 127.936913,175.161743 
	C127.547287,174.471725 127.293556,174.241592 127.039818,174.011459 
z"/>
<path fill="#159F78" opacity="1.000000" stroke="none" 
	d="
M146.655365,74.044373 
	C144.348740,69.863716 142.426743,65.400742 139.624893,61.583569 
	C136.942093,57.928574 133.374130,54.915771 130.143173,51.672543 
	C125.876846,47.390003 125.891472,40.228790 130.230820,35.783176 
	C134.722305,31.181702 142.185593,31.024750 146.674942,35.072601 
	C150.663406,38.668842 152.838959,42.349464 151.175812,48.075066 
	C149.287781,54.574848 155.011719,58.886902 157.040283,64.283218 
	C158.409439,67.925400 160.600296,71.258698 162.710403,75.361206 
	C163.036942,77.381218 163.076675,78.770195 163.116425,80.159172 
	C163.116425,80.159172 163.048431,80.137405 162.622955,80.074837 
	C158.444656,79.690804 154.691833,79.369339 150.938995,79.047874 
	C150.938995,79.047874 150.994247,79.003845 150.892090,78.791565 
	C150.498383,78.399849 150.206863,78.220421 149.915329,78.041000 
	C149.915329,78.041000 149.983292,78.010406 149.859619,77.785645 
	C149.405579,77.390877 149.075211,77.220879 148.744843,77.050873 
	C148.437866,76.973541 148.217148,76.791595 148.018921,75.950516 
	C147.521896,74.945450 147.088638,74.494919 146.655365,74.044373 
M136.169357,47.989029 
	C138.307159,48.204800 140.746277,49.128155 142.478149,48.390675 
	C143.657181,47.888618 144.626160,44.877274 144.258652,43.327103 
	C143.892181,41.781357 141.950867,39.982750 140.333069,39.483006 
	C136.266312,38.226765 134.170502,41.917786 136.169357,47.989029 
z"/>
<path fill="#F7F7F7" opacity="1.000000" stroke="none" 
	d="
M510.793457,84.471710 
	C509.666809,85.925171 508.611511,87.738136 507.451691,87.807686 
	C502.197754,88.122734 496.914276,87.945518 491.354919,87.945518 
	C491.354919,82.491013 491.354919,77.417908 491.354919,71.894493 
	C496.703186,71.894493 502.132538,71.687431 507.521606,72.061256 
	C508.661499,72.140327 510.318237,74.220245 510.574158,75.594749 
	C511.082794,78.326317 510.782623,81.208481 510.793457,84.471710 
z"/>
<path fill="#10A278" opacity="1.000000" stroke="none" 
	d="
M167.001221,189.001831 
	C166.758652,185.875122 166.516083,182.748398 166.136505,179.098145 
	C165.999512,178.574585 166.000275,178.152161 166.000275,178.152161 
	C169.768051,178.152161 173.535828,178.152161 178.944061,178.152161 
	C176.437729,182.159851 174.653320,185.013168 172.156952,187.954651 
	C169.963730,188.362473 168.482483,188.682159 167.001221,189.001831 
z"/>
<path fill="#1C9C78" opacity="1.000000" stroke="none" 
	d="
M166.586243,189.056946 
	C168.482483,188.682159 169.963730,188.362473 171.831299,188.067398 
	C170.303436,189.073853 168.457809,190.703430 166.462082,190.914688 
	C160.743698,191.519974 154.924759,191.214874 149.219086,191.890411 
	C141.875015,192.759949 135.869873,191.197571 131.412933,184.452332 
	C130.982742,184.344910 130.995712,184.271667 130.999527,184.291473 
	C130.657333,182.874161 130.311325,181.437027 129.889862,179.564331 
	C131.492432,180.977097 133.546112,182.609039 134.763519,184.722656 
	C136.767029,188.201065 139.370682,190.152100 143.427216,189.994995 
	C151.008591,189.701370 158.589935,189.406448 166.586243,189.056946 
z"/>
<path fill="#2A876C" opacity="1.000000" stroke="none" 
	d="
M188.490570,132.854919 
	C187.303741,133.512711 185.681168,134.815628 184.004471,134.889481 
	C178.046524,135.151901 172.066666,134.870300 166.101730,135.034500 
	C160.666916,135.184097 155.240677,135.645279 149.365326,135.944824 
	C152.120758,134.990143 155.293549,133.389755 158.527527,133.254684 
	C168.348984,132.844437 178.194092,133.000702 188.490570,132.854919 
z"/>
<path fill="#2F8B70" opacity="1.000000" stroke="none" 
	d="
M120.839539,44.617123 
	C109.901276,44.949944 98.748245,44.953651 87.094025,44.914593 
	C88.577812,44.229233 90.549217,43.086704 92.550156,43.032417 
	C100.333496,42.821255 108.127480,42.883724 115.914375,43.021202 
	C117.491478,43.049042 119.055000,43.845764 120.839539,44.617123 
z"/>
<path fill="#1C9C78" opacity="1.000000" stroke="none" 
	d="
M165.540009,178.085434 
	C166.000275,178.152161 165.999512,178.574585 165.999451,178.785767 
	C160.094757,178.991760 154.175171,179.233459 148.291794,178.877213 
	C145.351578,178.699173 141.612152,178.461823 142.049576,173.328812 
	C145.464188,178.263275 151.249802,177.041473 156.185013,177.898270 
	C159.069931,178.399109 162.109665,178.008347 165.540009,178.085434 
z"/>
<path fill="#408874" opacity="1.000000" stroke="none" 
	d="
M80.592148,51.811874 
	C80.433289,55.697861 81.917450,57.282478 86.406197,57.124420 
	C94.760109,56.830265 103.139915,57.271416 111.818024,57.709515 
	C103.012321,58.023460 93.897530,58.037907 84.782738,58.044006 
	C79.075058,58.047825 78.767036,57.630657 80.592148,51.811874 
z"/>
<path fill="#329075" opacity="1.000000" stroke="none" 
	d="
M174.038589,46.550686 
	C170.462738,46.263962 166.803741,45.362995 163.106979,45.163925 
	C162.110687,45.110275 160.999664,47.187683 159.875366,48.717758 
	C159.211670,47.740845 157.834183,46.022781 158.236099,45.012775 
	C158.635635,44.008705 160.806396,43.252918 162.230850,43.199474 
	C166.373413,43.044056 170.975098,41.611290 174.038589,46.550686 
z"/>
<path fill="#1C9C78" opacity="1.000000" stroke="none" 
	d="
M130.995911,153.613358 
	C129.945541,153.124680 128.412231,152.520538 127.821686,151.413483 
	C125.172600,146.447342 121.167603,143.870071 115.308365,143.408051 
	C124.016037,140.734543 127.797966,146.501923 130.995911,153.613358 
z"/>
<path fill="#437E6D" opacity="1.000000" stroke="none" 
	d="
M148.045898,167.372101 
	C157.259720,167.224762 166.839676,167.317886 176.707657,167.715103 
	C167.467804,167.883652 157.939911,167.748108 148.045898,167.372101 
z"/>
<path fill="#45A68A" opacity="1.000000" stroke="none" 
	d="
M99.524017,99.960030 
	C101.498215,100.064377 103.004929,100.187836 104.786827,100.570312 
	C96.041512,100.870178 87.020996,100.911026 77.543198,100.880699 
	C84.409447,100.532738 91.732986,100.255943 99.524017,99.960030 
z"/>
<path fill="#1C9C78" opacity="1.000000" stroke="none" 
	d="
M119.882309,162.473297 
	C125.718674,163.147720 125.109734,168.644333 126.924103,172.851776 
	C124.574577,169.774734 122.251900,166.299194 119.882309,162.473297 
z"/>
<path fill="#1C9C78" opacity="1.000000" stroke="none" 
	d="
M138.028809,165.592285 
	C133.844467,163.398895 131.307510,159.784454 131.021927,154.361389 
	C133.356155,157.721939 135.671219,161.480530 138.028809,165.592285 
z"/>
<path fill="#1C9C78" opacity="1.000000" stroke="none" 
	d="
M111.694748,143.141602 
	C112.696991,145.835007 113.336372,148.565933 113.940521,151.699112 
	C112.582954,149.261276 107.938705,147.379303 111.694748,143.141602 
z"/>
<path fill="#378F76" opacity="1.000000" stroke="none" 
	d="
M102.423645,130.261459 
	C102.081810,127.259911 102.052460,123.997795 102.041351,120.252853 
	C104.715164,123.019623 104.294701,126.472633 102.423645,130.261459 
z"/>
<path fill="#1C9C78" opacity="1.000000" stroke="none" 
	d="
M142.057800,172.572235 
	C138.175079,172.558350 137.879639,169.795639 138.035049,166.345276 
	C139.377686,168.036346 140.697433,170.131561 142.057800,172.572235 
z"/>
<path fill="#399279" opacity="1.000000" stroke="none" 
	d="
M151.152466,79.374268 
	C154.691833,79.369339 158.444656,79.690804 162.649017,80.050430 
	C159.188995,79.959282 155.277466,79.829971 151.152466,79.374268 
z"/>
<path fill="#1C9C78" opacity="1.000000" stroke="none" 
	d="
M113.909210,152.434814 
	C114.902733,153.503052 115.940392,154.907059 116.938957,156.702820 
	C115.917686,155.653259 114.935509,154.211929 113.909210,152.434814 
z"/>
<path fill="#399279" opacity="1.000000" stroke="none" 
	d="
M145.362015,91.007561 
	C145.320755,89.244110 145.656754,87.491692 146.007324,85.343239 
	C146.308533,86.988731 150.632904,89.218224 145.362015,91.007561 
z"/>
<path fill="#1C9C78" opacity="1.000000" stroke="none" 
	d="
M116.906876,157.441223 
	C117.904404,158.515747 118.934845,159.928055 119.922447,161.735428 
	C118.899666,160.680008 117.919731,159.229492 116.906876,157.441223 
z"/>
<path fill="#378F76" opacity="1.000000" stroke="none" 
	d="
M212.290955,120.751648 
	C211.998962,118.318253 211.989746,115.597252 211.993103,112.422821 
	C212.195053,114.800949 212.384384,117.632500 212.290955,120.751648 
z"/>
<path fill="#399279" opacity="1.000000" stroke="none" 
	d="
M163.447632,80.084930 
	C163.076675,78.770195 163.036942,77.381218 162.998993,75.579002 
	C163.260162,76.780739 163.519516,78.395721 163.447632,80.084930 
z"/>
<path fill="#399279" opacity="1.000000" stroke="none" 
	d="
M170.588898,78.797531 
	C170.472717,79.704491 170.066788,80.783516 169.284576,81.909866 
	C169.371918,80.961311 169.835541,79.965446 170.588898,78.797531 
z"/>
<path fill="#378F76" opacity="1.000000" stroke="none" 
	d="
M99.369385,136.134766 
	C99.494194,135.250137 99.898148,134.182571 100.671432,133.061737 
	C100.576683,133.989594 100.112610,134.970703 99.369385,136.134766 
z"/>
<path fill="#399279" opacity="1.000000" stroke="none" 
	d="
M172.000153,71.362175 
	C172.213745,72.477234 172.402710,74.018700 172.326584,75.801697 
	C172.032837,74.625008 172.004166,73.206802 172.000153,71.362175 
z"/>
<path fill="#399279" opacity="1.000000" stroke="none" 
	d="
M169.970551,67.359695 
	C170.601486,67.887871 171.283249,68.744125 171.926697,69.990532 
	C171.266068,69.483040 170.643723,68.585403 169.970551,67.359695 
z"/>
<path fill="#408874" opacity="1.000000" stroke="none" 
	d="
M112.660339,58.385307 
	C113.326530,58.836411 114.135826,59.584358 114.973587,60.687588 
	C114.269188,60.255959 113.536316,59.469051 112.660339,58.385307 
z"/>
<path fill="#399279" opacity="1.000000" stroke="none" 
	d="
M168.143707,64.332321 
	C168.718689,64.809120 169.348740,65.589706 169.969604,66.722321 
	C169.373215,66.261597 168.785995,65.448853 168.143707,64.332321 
z"/>
<path fill="#179E77" opacity="1.000000" stroke="none" 
	d="
M142.614456,144.092239 
	C143.179794,144.512665 143.488144,145.092606 143.644867,146.004852 
	C143.114639,145.642014 142.736053,144.946884 142.614456,144.092239 
z"/>
<path fill="#399279" opacity="1.000000" stroke="none" 
	d="
M141.383301,91.931732 
	C142.115311,91.565704 143.202179,91.271660 144.647430,90.982590 
	C143.916611,91.326279 142.827362,91.664993 141.383301,91.931732 
z"/>
<path fill="#399279" opacity="1.000000" stroke="none" 
	d="
M136.125153,91.329445 
	C136.800690,91.162781 137.680527,91.276398 138.787476,91.640228 
	C138.119537,91.796867 137.224503,91.703300 136.125153,91.329445 
z"/>
<path fill="#179E77" opacity="1.000000" stroke="none" 
	d="
M69.617310,86.950500 
	C69.138084,87.188141 68.289162,87.394104 67.239685,87.378128 
	C67.775291,87.077057 68.511452,86.997940 69.617310,86.950500 
z"/>
<path fill="#399279" opacity="1.000000" stroke="none" 
	d="
M128.709503,84.402725 
	C129.060745,84.534668 129.495621,84.970505 129.939423,85.741959 
	C129.563263,85.620590 129.178223,85.163605 128.709503,84.402725 
z"/>
<path fill="#399279" opacity="1.000000" stroke="none" 
	d="
M168.670715,82.057297 
	C168.745956,82.507591 168.542694,83.096779 168.033936,83.799561 
	C167.949692,83.340820 168.170959,82.768501 168.670715,82.057297 
z"/>
<path fill="#2F8B70" opacity="1.000000" stroke="none" 
	d="
M124.284142,48.621861 
	C123.949471,48.481171 123.503380,48.050568 123.049393,47.284069 
	C123.418571,47.409431 123.795647,47.870686 124.284142,48.621861 
z"/>
<path fill="#378F76" opacity="1.000000" stroke="none" 
	d="
M101.256409,132.847290 
	C101.182892,132.455917 101.347771,131.865845 101.769737,131.091217 
	C101.849487,131.487289 101.672150,132.067947 101.256409,132.847290 
z"/>
<path fill="#2A876C" opacity="1.000000" stroke="none" 
	d="
M190.841827,130.264786 
	C190.815811,130.615875 190.582336,131.170395 190.056351,131.838440 
	C190.054001,131.457397 190.344177,130.962814 190.841827,130.264786 
z"/>
<path fill="#399279" opacity="1.000000" stroke="none" 
	d="
M145.227142,83.570297 
	C144.841156,83.434013 144.453873,82.983047 144.075775,82.207687 
	C144.465240,82.340736 144.845535,82.798172 145.227142,83.570297 
z"/>
<path fill="#2A876C" opacity="1.000000" stroke="none" 
	d="
M192.666183,127.078476 
	C192.769165,127.507339 192.603546,128.084732 192.162140,128.808548 
	C192.056763,128.378983 192.227188,127.803001 192.666183,127.078476 
z"/>
<path fill="#399279" opacity="1.000000" stroke="none" 
	d="
M144.096085,81.646675 
	C143.766037,81.463028 143.401062,80.959991 143.032898,80.121521 
	C143.373520,80.299812 143.717346,80.813545 144.096085,81.646675 
z"/>
<path fill="#378F76" opacity="1.000000" stroke="none" 
	d="
M211.319122,122.916306 
	C211.198639,122.487167 211.348633,121.901871 211.764053,121.153503 
	C211.882843,121.580338 211.736206,122.170242 211.319122,122.916306 
z"/>
<path fill="#2F8B70" opacity="1.000000" stroke="none" 
	d="
M127.128036,53.682636 
	C126.748047,53.486904 126.403778,52.955963 126.065109,52.088028 
	C126.435066,52.283161 126.799416,52.815296 127.128036,53.682636 
z"/>
<path fill="#378F76" opacity="1.000000" stroke="none" 
	d="
M212.012985,111.702713 
	C211.692459,111.529175 211.358429,111.050934 211.020081,110.262238 
	C211.343658,110.433868 211.671570,110.915939 212.012985,111.702713 
z"/>
<path fill="#329075" opacity="1.000000" stroke="none" 
	d="
M159.780334,49.444656 
	C160.164597,49.618687 160.551025,50.123379 160.915298,50.976601 
	C160.522949,50.808529 160.152740,50.291927 159.780334,49.444656 
z"/>
<path fill="#2F8B70" opacity="1.000000" stroke="none" 
	d="
M81.780579,49.194115 
	C81.831100,49.562504 81.653702,50.132820 81.228699,50.885056 
	C81.171623,50.509995 81.362144,49.953018 81.780579,49.194115 
z"/>
<path fill="#399279" opacity="1.000000" stroke="none" 
	d="
M134.083313,90.323257 
	C134.514343,90.215950 135.097260,90.379944 135.834641,90.816978 
	C135.404465,90.924858 134.819855,90.759705 134.083313,90.323257 
z"/>
<path fill="#399279" opacity="1.000000" stroke="none" 
	d="
M146.756134,74.342972 
	C147.088638,74.494919 147.521896,74.945450 147.979919,75.733521 
	C147.622070,75.594559 147.239471,75.118065 146.756134,74.342972 
z"/>
<path fill="#378F76" opacity="1.000000" stroke="none" 
	d="
M210.291382,124.898697 
	C210.202133,124.483215 210.369675,123.900986 210.810135,123.166443 
	C210.904755,123.586731 210.726471,124.159340 210.291382,124.898697 
z"/>
<path fill="#2A876C" opacity="1.000000" stroke="none" 
	d="
M191.684814,128.993866 
	C191.788040,129.194534 191.637497,129.484909 191.271759,129.902496 
	C191.181396,129.714325 191.306229,129.398941 191.684814,128.993866 
z"/>
<path fill="#2F8B70" opacity="1.000000" stroke="none" 
	d="
M85.785919,45.043442 
	C85.832565,45.284100 85.593353,45.549046 85.092567,45.888466 
	C85.054016,45.664536 85.277031,45.366131 85.785919,45.043442 
z"/>
<path fill="#1C9C78" opacity="1.000000" stroke="none" 
	d="
M129.136841,178.289337 
	C129.451126,178.165634 129.671829,178.385605 129.859772,178.922913 
	C129.648605,178.954727 129.387360,178.752319 129.136841,178.289337 
z"/>
<path fill="#399279" opacity="1.000000" stroke="none" 
	d="
M148.862366,77.312622 
	C149.075211,77.220879 149.405579,77.390877 149.850830,77.821869 
	C149.637115,77.913353 149.308487,77.743866 148.862366,77.312622 
z"/>
<path fill="#2F8B70" opacity="1.000000" stroke="none" 
	d="
M122.016823,45.685661 
	C121.792946,45.772198 121.506332,45.594650 121.126984,45.175156 
	C121.340858,45.095993 121.647476,45.258785 122.016823,45.685661 
z"/>
<path fill="#399279" opacity="1.000000" stroke="none" 
	d="
M149.977448,78.309738 
	C150.206863,78.220421 150.498383,78.399849 150.882263,78.825485 
	C150.662918,78.907288 150.351242,78.742882 149.977448,78.309738 
z"/>
<path fill="#1C9C78" opacity="1.000000" stroke="none" 
	d="
M127.052505,174.287354 
	C127.293556,174.241592 127.547287,174.471725 127.869415,174.955292 
	C127.646935,174.993576 127.356064,174.778412 127.052505,174.287354 
z"/>
<path fill="#2F8B70" opacity="1.000000" stroke="none" 
	d="
M123.009216,46.706406 
	C122.779190,46.786049 122.499626,46.597797 122.134895,46.165073 
	C122.353043,46.093239 122.656364,46.265877 123.009216,46.706406 
z"/>
<path fill="#1C9C78" opacity="1.000000" stroke="none" 
	d="
M128.858276,176.298279 
	C128.997894,176.287872 129.203537,176.510010 129.264786,176.852463 
	C129.120377,176.972778 128.924316,176.530823 128.858276,176.298279 
z"/>
<path fill="#399279" opacity="1.000000" stroke="none" 
	d="
M171.668640,76.855011 
	C171.785721,77.054428 171.651001,77.391159 171.285660,77.882210 
	C171.175644,77.688461 171.296249,77.340393 171.668640,76.855011 
z"/>
<path fill="#2F8B70" opacity="1.000000" stroke="none" 
	d="
M82.686325,47.993050 
	C82.785103,48.208359 82.621376,48.497662 82.229233,48.899712 
	C82.141823,48.697319 82.282822,48.382179 82.686325,47.993050 
z"/>
<path fill="#399279" opacity="1.000000" stroke="none" 
	d="
M130.935455,87.340927 
	C131.177017,87.250923 131.473724,87.434792 131.850754,87.876579 
	C131.617584,87.961273 131.304092,87.788033 130.935455,87.340927 
z"/>
<path fill="#399279" opacity="1.000000" stroke="none" 
	d="
M165.731735,87.022781 
	C165.931839,87.257057 165.790833,87.538940 165.349182,87.904312 
	C165.263123,87.732300 165.377151,87.426498 165.731735,87.022781 
z"/>
<path fill="#399279" opacity="1.000000" stroke="none" 
	d="
M131.927460,88.342560 
	C132.163193,88.249634 132.462906,88.427574 132.847717,88.860809 
	C132.619019,88.948547 132.305237,88.780991 131.927460,88.342560 
z"/>
<path fill="#399279" opacity="1.000000" stroke="none" 
	d="
M132.921692,89.360909 
	C133.171402,89.247437 133.479233,89.411369 133.879669,89.828384 
	C133.641434,89.933739 133.310623,89.786026 132.921692,89.360909 
z"/>
<path fill="#329075" opacity="1.000000" stroke="none" 
	d="
M161.066513,52.237114 
	C161.306946,52.196484 161.560669,52.437290 161.877380,52.937904 
	C161.653519,52.971321 161.366653,52.744934 161.066513,52.237114 
z"/>
<path fill="#399279" opacity="1.000000" stroke="none" 
	d="
M166.622162,85.661026 
	C166.753799,85.890053 166.614120,86.281685 166.198761,86.830368 
	C166.065659,86.599503 166.208267,86.211571 166.622162,85.661026 
z"/>
<path fill="#399279" opacity="1.000000" stroke="none" 
	d="
M129.964188,86.305267 
	C130.202469,86.222038 130.491684,86.414856 130.855240,86.865601 
	C130.624756,86.942795 130.319946,86.762054 129.964188,86.305267 
z"/>
<path fill="#378F76" opacity="1.000000" stroke="none" 
	d="
M210.007599,108.702576 
	C209.742447,108.929024 209.458771,108.780060 209.110321,108.306511 
	C209.300598,108.210266 209.615097,108.325356 210.007599,108.702576 
z"/>
<path fill="#378F76" opacity="1.000000" stroke="none" 
	d="
M210.988464,109.732292 
	C210.764908,109.802879 210.485001,109.606369 210.118011,109.162491 
	C210.331329,109.098473 210.631714,109.281837 210.988464,109.732292 
z"/>
<path fill="#329075" opacity="1.000000" stroke="none" 
	d="
M176.131149,49.646927 
	C175.897171,49.681736 175.562881,49.409149 175.164001,48.805107 
	C175.409897,48.762276 175.720352,49.050903 176.131149,49.646927 
z"/>
<path fill="#1C9C78" opacity="1.000000" stroke="none" 
	d="
M113.940155,142.798645 
	C113.848007,142.996094 113.655190,142.998535 113.173225,142.984024 
	C113.202545,142.845932 113.521011,142.724777 113.940155,142.798645 
z"/>
<path fill="#329075" opacity="1.000000" stroke="none" 
	d="
M174.985382,47.794113 
	C174.750565,47.851803 174.482361,47.626030 174.136108,47.145004 
	C174.356033,47.096722 174.654022,47.303684 174.985382,47.794113 
z"/>
<path fill="#2A876C" opacity="1.000000" stroke="none" 
	d="
M194.589478,123.777954 
	C194.711090,123.983917 194.577698,124.357269 194.189911,124.900177 
	C194.068497,124.694939 194.201477,124.320137 194.589478,123.777954 
z"/>
<path fill="#378F76" opacity="1.000000" stroke="none" 
	d="
M209.357590,126.373642 
	C209.224457,126.143272 209.367630,125.741280 209.789490,125.172920 
	C209.923431,125.405045 209.778671,125.803535 209.357590,126.373642 
z"/>
<path fill="#2A876C" opacity="1.000000" stroke="none" 
	d="
M193.562683,125.643227 
	C193.697403,125.860672 193.573517,126.249596 193.184326,126.803696 
	C193.047379,126.584145 193.175720,126.199417 193.562683,125.643227 
z"/>
<path fill="#378F76" opacity="1.000000" stroke="none" 
	d="
M208.288666,127.998215 
	C208.184769,127.739792 208.379089,127.447166 208.809006,127.024147 
	C208.892014,127.250504 208.739441,127.607262 208.288666,127.998215 
z"/>
<path fill="#2A876C" opacity="1.000000" stroke="none" 
	d="
M148.651810,135.958038 
	C148.678680,136.198959 148.399429,136.492722 147.806885,136.830231 
	C147.777649,136.586288 148.061661,136.298569 148.651810,135.958038 
z"/>
<path fill="#2F8B70" opacity="1.000000" stroke="none" 
	d="
M83.649429,46.838066 
	C83.749107,47.051262 83.589828,47.383614 83.174141,47.837280 
	C83.075310,47.624798 83.232887,47.291008 83.649429,46.838066 
z"/>
<path fill="#2A876C" opacity="1.000000" stroke="none" 
	d="
M146.593811,137.653900 
	C146.682983,137.892593 146.488983,138.287704 145.974609,138.797882 
	C145.873032,138.545410 146.091812,138.177872 146.593811,137.653900 
z"/>
<path fill="#399279" opacity="1.000000" stroke="none" 
	d="
M146.012604,84.719177 
	C145.778625,84.781723 145.504684,84.567230 145.183838,84.086914 
	C145.415482,84.028099 145.694061,84.235115 146.012604,84.719177 
z"/>
<path fill="#030303" opacity="1.000000" stroke="none" 
	d="
M622.703674,131.007874 
	C622.703308,128.056946 622.703308,125.604210 622.703308,122.258644 
	C631.741211,122.826256 640.324402,123.021118 648.812927,124.019730 
	C654.446838,124.682510 657.106812,128.889832 656.802795,134.724716 
	C656.480469,140.910736 653.795532,144.410034 648.077026,144.933121 
	C639.844238,145.686172 631.566467,145.949005 622.704041,146.455566 
	C622.704041,141.000565 622.704041,136.253326 622.703674,131.007874 
z"/>
<path fill="#040404" opacity="1.000000" stroke="none" 
	d="
M622.826172,92.172226 
	C623.540955,90.534958 624.258484,88.376472 624.970093,88.378418 
	C631.433411,88.396011 637.941833,88.409500 644.345154,89.184090 
	C650.529053,89.932137 653.362366,93.728073 653.002991,99.280891 
	C652.669678,104.431557 649.312988,107.703629 643.326477,107.950920 
	C636.705688,108.224403 630.064880,108.013397 622.826111,108.013397 
	C622.826111,102.835854 622.826111,97.744431 622.826172,92.172226 
z"/>
<path fill="#030303" opacity="1.000000" stroke="none" 
	d="
M569.124268,123.020905 
	C568.809998,129.140915 569.039307,134.956467 567.912781,140.496307 
	C566.798340,145.976486 561.104675,149.842896 555.940491,150.037552 
	C550.504150,150.242462 544.211853,146.685379 542.223938,141.751694 
	C538.912231,133.532806 538.964783,125.153366 542.466248,117.010704 
	C545.033386,111.040894 550.604126,108.776672 558.416443,109.969879 
	C564.371399,110.879410 567.781494,114.919304 569.124268,123.020905 
z"/>
<path fill="#040404" opacity="1.000000" stroke="none" 
	d="
M373.161530,149.783417 
	C363.764832,149.360748 360.138702,142.203522 358.994171,133.539795 
	C358.483185,129.671677 358.994171,125.553894 359.689789,121.665413 
	C361.051178,114.054741 366.150024,109.674011 373.169647,109.462830 
	C380.535797,109.241219 386.456390,113.409630 387.712341,121.051468 
	C388.607056,126.495117 388.653351,132.328720 387.734406,137.760956 
	C386.371887,145.815170 382.283569,148.732651 373.161530,149.783417 
z"/>
<path fill="#040404" opacity="1.000000" stroke="none" 
	d="
M740.761353,115.966965 
	C745.111511,109.467484 751.152405,108.505898 757.658325,110.348572 
	C764.015991,112.149292 766.394409,117.353508 767.341003,123.498573 
	C768.323486,129.877121 768.007263,136.048981 765.224976,141.952942 
	C762.730286,147.246765 758.573303,150.196732 752.661011,149.947617 
	C746.803772,149.700821 742.227722,147.323227 739.988281,141.397232 
	C736.783691,132.916870 736.967468,124.591942 740.761353,115.966965 
z"/>
<path fill="#020907" opacity="1.000000" stroke="none" 
	d="
M66.529831,149.226166 
	C64.712112,152.500443 62.112144,153.732300 59.481071,151.608444 
	C58.067833,150.467636 56.812828,147.177094 57.480446,145.894424 
	C58.364803,144.195267 61.265991,142.492599 63.182014,142.616898 
	C66.515221,142.833160 67.516594,145.658813 66.529831,149.226166 
z"/>
<path fill="#000101" opacity="1.000000" stroke="none" 
	d="
M69.996033,157.009277 
	C70.086945,157.010056 70.165222,156.991058 70.096542,156.964294 
	C69.949577,156.956543 69.983391,156.989487 69.996033,157.009277 
z"/>
<path fill="#020704" opacity="1.000000" stroke="none" 
	d="
M183.020782,160.235229 
	C184.789474,158.852219 186.545349,157.038467 188.195343,157.130173 
	C189.846375,157.221939 192.191498,158.932861 192.738373,160.466721 
	C193.203217,161.770477 191.919083,164.888138 190.731995,165.313202 
	C188.925201,165.960190 186.372391,165.346069 184.461685,164.517471 
	C183.568985,164.130371 183.437836,161.987122 183.020782,160.235229 
z"/>
<path fill="#020704" opacity="1.000000" stroke="none" 
	d="
M76.099716,76.037567 
	C74.142471,79.249130 71.281799,80.358727 68.985016,78.043831 
	C67.632256,76.680405 67.470795,73.345276 68.019592,71.218445 
	C68.293541,70.156784 71.564278,68.966827 73.128662,69.333145 
	C76.105942,70.030312 77.906105,72.239380 76.099716,76.037567 
z"/>
<path fill="#020907" opacity="1.000000" stroke="none" 
	d="
M115.805832,192.966248 
	C116.036758,190.273254 116.145775,187.705002 117.212341,185.628616 
	C117.550995,184.969330 120.746651,185.058044 122.096710,185.793060 
	C124.623398,187.168671 125.939430,189.624146 124.113571,192.470261 
	C121.861786,195.980347 118.984924,195.405441 115.805832,192.966248 
z"/>
<path fill="#020907" opacity="1.000000" stroke="none" 
	d="
M201.957397,87.311859 
	C200.826248,89.815796 199.990616,92.386208 198.226196,93.785065 
	C197.537140,94.331352 194.136536,92.675713 193.128586,91.220924 
	C192.303650,90.030251 192.615829,87.315750 193.448517,85.864830 
	C195.217209,82.782890 198.959167,83.391609 201.957397,87.311859 
z"/>
<path fill="#020D09" opacity="1.000000" stroke="none" 
	d="
M135.888489,47.721691 
	C134.170502,41.917786 136.266312,38.226765 140.333069,39.483006 
	C141.950867,39.982750 143.892181,41.781357 144.258652,43.327103 
	C144.626160,44.877274 143.657181,47.888618 142.478149,48.390675 
	C140.746277,49.128155 138.307159,48.204800 135.888489,47.721691 
z"/>
</svg>